<svg width="1040" height="1701" viewBox="0 0 1040 1701" fill="none" xmlns="http://www.w3.org/2000/svg">
<rect width="1040" height="1701" fill="white"/>
<circle cx="533.5" cy="330.5" r="154.5" fill="#DEEAFA"/>
<ellipse cx="533.5" cy="901.5" rx="327.5" ry="333.5" fill="#DEEAFA"/>
<rect x="206" y="901" width="655" height="643" fill="#DEEAFA"/>
<path d="M504.312 1630.14H509.624V1687.99H504.312V1630.14ZM487.352 1636.34H492.6C492.6 1653.11 485.048 1667.77 465.72 1677.24L462.904 1672.95C479.608 1664.89 487.352 1652.6 487.352 1637.24V1636.34ZM465.528 1636.34H489.656V1640.7H465.528V1636.34ZM550.131 1643.9H565.683V1648.31H550.131V1643.9ZM536.819 1632.76C545.459 1632.76 551.731 1638.26 551.731 1646.2C551.731 1654.14 545.459 1659.58 536.819 1659.58C528.179 1659.58 521.907 1654.14 521.907 1646.2C521.907 1638.26 528.179 1632.76 536.819 1632.76ZM536.819 1637.24C531.123 1637.24 527.027 1640.89 527.027 1646.2C527.027 1651.45 531.123 1655.16 536.819 1655.16C542.515 1655.16 546.611 1651.45 546.611 1646.2C546.611 1640.89 542.515 1637.24 536.819 1637.24ZM563.315 1630.14H568.627V1661.18H563.315V1630.14ZM531.571 1664.06H536.883V1671.35H563.379V1664.06H568.627V1687.22H531.571V1664.06ZM536.883 1675.58V1682.94H563.379V1675.58H536.883Z" fill="black"/>
</svg>
