<?xml version="1.0" encoding="UTF-8"?>
<svg version="1.1" xmlns="http://www.w3.org/2000/svg" width="1040" height="1701">
<path d="M0 0 C0.68916504 0.45600586 1.37833008 0.91201172 2.08837891 1.38183594 C11.95609289 7.91633632 21.36393805 14.6230796 30.22314453 22.47802734 C32.4969675 24.4256795 34.84195896 26.27800566 37.1796875 28.1484375 C43.18818936 33.04877235 48.66923256 38.37319233 54.125 43.875 C55.04925781 44.79152344 55.97351563 45.70804688 56.92578125 46.65234375 C63.04936689 52.79320326 68.5890332 59.2297432 74 66 C75.58037469 67.83588437 77.16305074 69.66979575 78.75 71.5 C120.42979401 121.51575281 146.05922954 188.33024297 151 253 C151.08229571 253.9904831 151.16459142 254.98096621 151.24938095 256.00146395 C152.22470204 269.26824239 152.13928784 282.52541774 152.12698364 295.82164001 C152.12758305 298.54060603 152.12968531 301.25957044 152.13171089 303.97853571 C152.13530532 309.8697266 152.1352237 315.76090831 152.13266373 321.65209961 C152.12886756 330.41199397 152.13082196 339.17188065 152.13387203 347.93177497 C152.13912693 363.57636893 152.13868595 379.22095879 152.13579312 394.86555312 C152.13327568 408.54720047 152.13262177 422.22884632 152.13381577 435.91049385 C152.13393034 437.27279164 152.13393034 437.27279164 152.13404724 438.6626106 C152.13435858 442.34929573 152.13467698 446.03598085 152.135007 449.72266598 C152.13806331 484.27610874 152.1352961 518.82954889 152.1299101 553.38299125 C152.12515876 584.09867199 152.12559447 614.81434859 152.13037109 645.5300293 C152.13572042 680.04369294 152.13785256 714.55735428 152.13475883 749.07101828 C152.13443811 752.74625973 152.13412527 756.42150118 152.13381577 760.09674263 C152.13373669 761.00167792 152.13365761 761.9066132 152.13357614 762.83897077 C152.13243706 776.52424406 152.13377179 790.20951569 152.13629532 803.89478874 C152.13914727 819.43855854 152.13845511 834.98232361 152.13301457 850.52609282 C152.13006783 859.23314328 152.12990167 867.9401835 152.13366075 876.6472337 C152.13589132 882.45181894 152.13452916 888.25639591 152.13015598 894.06097992 C152.12776135 897.37519886 152.12753701 900.6893931 152.13056196 904.00361215 C152.13356239 907.56131165 152.13052521 911.11895366 152.12584114 914.67665005 C152.12818231 915.72190008 152.13052347 916.76715012 152.13293558 917.8440744 C152.13043207 918.78254377 152.12792855 919.72101315 152.12534916 920.68792099 C152.12524753 921.91019674 152.12524753 921.91019674 152.12514383 923.15716493 C152 925 152 925 151 926 C149.56131734 926.09706972 148.11787596 926.12447373 146.67592233 926.1241985 C145.73478677 926.12644579 144.79365121 926.12869308 143.82399639 926.13100848 C142.25166752 926.12706796 142.25166752 926.12706796 140.64757442 926.12304783 C139.54053582 926.12420167 138.43349721 926.12535552 137.29291198 926.12654433 C133.53306421 926.12921968 129.77325813 926.12468132 126.01341248 926.12025452 C123.31080406 926.12069003 120.60819844 926.12152218 117.90559059 926.12284368 C112.00368988 926.12492329 106.10179922 926.12326369 100.19989967 926.11920547 C91.42389541 926.11318769 82.64789753 926.11286806 73.87189159 926.11374746 C59.11157263 926.11506357 44.35125813 926.1117116 29.59094048 926.10573006 C14.96926285 926.09981984 0.34758709 926.09596549 -14.27409172 926.09487724 C-15.18208012 926.0948085 -16.09006852 926.09473976 -17.02557172 926.09466894 C-21.63649218 926.09433062 -26.24741264 926.09402923 -30.8583331 926.09374207 C-63.54610029 926.09163977 -96.23386504 926.08489717 -128.92163086 926.07543945 C-160.68400052 926.06626007 -192.44636951 926.05917398 -224.20874023 926.05493164 C-225.67645288 926.05473435 -225.67645288 926.05473435 -227.17381628 926.05453308 C-236.99976361 926.05321459 -246.82571094 926.05193878 -256.65165827 926.05069422 C-276.66954122 926.04815777 -296.68742412 926.04533652 -316.70530701 926.04234314 C-317.62576496 926.04220585 -318.54622292 926.04206856 -319.49457354 926.04192711 C-380.99638337 926.03272121 -442.49819185 926.01687541 -504 926 C-505.1837979 923.6324042 -505.12597532 922.21693539 -505.1276505 919.57572114 C-505.13066647 918.63767066 -505.13368244 917.69962018 -505.1367898 916.73314393 C-505.13502033 915.69349012 -505.13325086 914.65383631 -505.13142776 913.58267784 C-505.1334804 912.48069573 -505.13553303 911.37871362 -505.13764787 910.24333811 C-505.14335613 906.5064019 -505.1418559 902.7695021 -505.14044189 899.03256226 C-505.14302341 896.34364705 -505.14599691 893.65473487 -505.1494453 890.96582091 C-505.15704197 884.32164023 -505.15921921 877.67746759 -505.15977435 871.03328302 C-505.16068647 863.07784246 -505.16734992 855.12240938 -505.17412117 847.16697202 C-505.19020695 827.92513252 -505.19608931 808.68329379 -505.20086992 789.44144878 C-505.20320532 780.33156944 -505.20680812 771.22169073 -505.2105653 762.11181188 C-505.22340888 730.91028813 -505.2341228 699.70876473 -505.2375679 668.50723839 C-505.23778953 666.547036 -505.23801132 664.58683362 -505.23823325 662.62663124 C-505.23845389 660.66171212 -505.23867438 658.69679299 -505.2388947 656.73187387 C-505.23933725 652.78999925 -505.23978436 648.84812462 -505.24023438 644.90625 C-505.24034377 643.92888841 -505.24045316 642.95152683 -505.24056586 641.94454822 C-505.24418941 610.31588787 -505.2600787 578.68725055 -505.28342474 547.05859901 C-505.3080758 513.60044564 -505.32174339 480.14230541 -505.32293582 446.68414271 C-505.32310726 443.00335288 -505.32332268 439.32256305 -505.32357025 435.64177322 C-505.32362602 434.7354939 -505.32368179 433.82921457 -505.32373925 432.89547223 C-505.32488577 418.3648802 -505.33587464 403.83431191 -505.35045731 389.30372787 C-505.36489557 374.66229855 -505.36801844 360.02089934 -505.36001733 345.37946485 C-505.35597987 337.46071703 -505.35662882 329.54204198 -505.37107468 321.62330437 C-505.54040495 224.36130456 -487.66623051 136.32576802 -419 57 C-418.19433594 56.1028125 -417.38867188 55.205625 -416.55859375 54.28125 C-407.52428125 44.2760518 -398.32837714 34.58218131 -387.74609375 26.19140625 C-384.95561654 23.96458162 -382.26569166 21.64414498 -379.5625 19.3125 C-367.28481161 9.07577799 -353.86771211 0.02293071 -339.97412109 -7.87402344 C-338.59980137 -8.65789217 -337.23068423 -9.45092359 -335.86572266 -10.25097656 C-240.83832138 -65.91194302 -118.9786717 -65.3423679 0 0 Z " fill="#FADEE2" transform="translate(710,619)"/>
<path d="M0 0 C31.49576107 27.62911166 51.63674706 65.11027322 54.72314453 107.25488281 C56.19274091 132.69330803 52.51459319 158.13454681 41.84765625 181.41015625 C41.5552002 182.05259277 41.26274414 182.6950293 40.96142578 183.35693359 C33.53424552 199.48126724 23.80910088 213.33247924 11.84765625 226.41015625 C11.09871094 227.23128906 10.34976562 228.05242187 9.578125 228.8984375 C-17.24878705 256.91986882 -56.87114737 273.49162119 -95.46875 274.578125 C-139.29016265 275.05261462 -178.17549508 259.20322013 -210.15234375 229.41015625 C-211.17134766 228.47236328 -211.17134766 228.47236328 -212.2109375 227.515625 C-240.64802995 200.33731732 -254.36730883 161.35126539 -256.3359375 122.81640625 C-257.22241356 78.1797296 -239.34658654 39.42516228 -209.15625 7.28515625 C-154.16992289 -49.36071795 -59.09090144 -50.47561504 0 0 Z " fill="#FADEE2" transform="translate(634.15234375,211.58984375)"/>
<path d="M0 0 C14.85 0 29.7 0 45 0 C45 1.65 45 3.3 45 5 C38.73 5 32.46 5 26 5 C28.99447578 14.38970119 28.99447578 14.38970119 36 20 C39.60487633 21.55742302 43.24770968 22.84649303 47 24 C46.34 25.65 45.68 27.3 45 29 C36.23410815 28.6812403 30.57139766 24.70116686 24.4375 18.625 C23.2309375 17.325625 23.2309375 17.325625 22 16 C21.61070312 16.51949219 21.22140625 17.03898437 20.8203125 17.57421875 C15.50312901 24.20232075 9.35484949 28.1753777 1 30 C0.01 28.35 -0.98 26.7 -2 25 C-1.04738281 24.56429688 -0.09476562 24.12859375 0.88671875 23.6796875 C2.15401194 23.07889665 3.42091878 22.47729037 4.6875 21.875 C5.31333984 21.59140625 5.93917969 21.3078125 6.58398438 21.015625 C11.84163471 18.48314421 15.52094706 15.3824755 17.92578125 9.8828125 C18.05339844 9.30273438 18.18101562 8.72265625 18.3125 8.125 C18.539375 7.09375 18.76625 6.0625 19 5 C18.24976563 5.26103516 18.24976563 5.26103516 17.484375 5.52734375 C14.03513078 6.18356789 10.72177828 5.84798649 7.25 5.5625 C6.55261719 5.51029297 5.85523438 5.45808594 5.13671875 5.40429688 C3.42403797 5.27525928 1.71194934 5.13840386 0 5 C0 3.35 0 1.7 0 0 Z " fill="#2C2C2C" transform="translate(459,1635)"/>
<path d="M0 0 C0 1.65 0 3.3 0 5 C-4.29 5 -8.58 5 -13 5 C-10.62122202 12.80239179 -8.75825309 17.38996193 -2 22 C-1.195625 22.61875 -0.39125 23.2375 0.4375 23.875 C0.953125 24.24625 1.46875 24.6175 2 25 C1.01 26.32 0.02 27.64 -1 29 C-7.61125694 27.26848032 -12.21595265 23.67607103 -16 18 C-16.53625 18.886875 -17.0725 19.77375 -17.625 20.6875 C-20.50167365 24.97709816 -23.77446158 28.37104349 -28.875 29.8125 C-29.57625 29.874375 -30.2775 29.93625 -31 30 C-31.66 28.35 -32.32 26.7 -33 25 C-32.46890625 24.62488281 -31.9378125 24.24976563 -31.390625 23.86328125 C-23.72606681 18.31067249 -20.67804784 14.36910045 -19 5 C-23.29 5 -27.58 5 -32 5 C-32 3.35 -32 1.7 -32 0 C-21.18862917 -1.12980563 -10.81311563 -0.79688494 0 0 Z " fill="#282828" transform="translate(548,1634)"/>
<path d="M0 0 C1.98 0 3.96 0 6 0 C6 4.62 6 9.24 6 14 C13.92 14 21.84 14 30 14 C30 15.65 30 17.3 30 19 C12.51 19 -4.98 19 -23 19 C-23 17.35 -23 15.7 -23 14 C-15.41 14 -7.82 14 0 14 C0 9.38 0 4.76 0 0 Z " fill="#1D1D1D" transform="translate(478,1662)"/>
<path d="M0 0 C2.72604799 2.4622369 2.96853429 3.75276944 3.4375 7.4375 C2.92397345 11.61907331 2.03676718 13.1273824 -1 16 C-6.27423791 18.55666448 -11.2455264 18.54925225 -17 18 C-21.13527988 16.52311433 -24.00369637 14.99260727 -26 11 C-26.51852266 6.92589337 -26.44210792 4.76518679 -24.375 1.1875 C-17.53465952 -5.1128136 -7.6616801 -4.29054086 0 0 Z M-20 5 C-20.66666667 7.5 -20.66666667 7.5 -20 10 C-18.18952935 12.28276734 -16.73964875 12.90092778 -13.87109375 13.28515625 C-10.31041624 13.42007484 -7.69580613 13.32244674 -4.4375 11.8125 C-2.81157205 10.04514765 -2.81157205 10.04514765 -2.5 7.5 C-2.81157205 4.95485235 -2.81157205 4.95485235 -4.4375 3.1875 C-9.35495574 0.90867905 -16.34446153 0.3908428 -20 5 Z " fill="#2D2D2D" transform="translate(603,1635)"/>
<path d="M0 0 C1.98 0 3.96 0 6 0 C6 14.85 6 29.7 6 45 C4.02 45 2.04 45 0 45 C0 43.02 0 41.04 0 39 C-3.96 39 -7.92 39 -12 39 C-12 37.35 -12 35.7 -12 34 C-8.04 34 -4.08 34 0 34 C0 22.78 0 11.56 0 0 Z " fill="#282828" transform="translate(615,1630)"/>
<path d="M0 0 C2.5 0.125 2.5 0.125 3.5 1.125 C3.5 5.085 3.5 9.045 3.5 13.125 C15.05 13.125 26.6 13.125 38.5 13.125 C38.5 14.775 38.5 16.425 38.5 18.125 C24.64 18.125 10.78 18.125 -3.5 18.125 C-3.5 0.175 -3.5 0.175 0 0 Z " fill="#2E2E2E" transform="translate(583.5,1668.875)"/>
<path d="M0 0 C13.2 0 26.4 0 40 0 C40 6.6 40 13.2 40 20 C38.02 20 36.04 20 34 20 C34 15.05 34 10.1 34 5 C22.78 5 11.56 5 0 5 C0 3.35 0 1.7 0 0 Z " fill="#222222" transform="translate(522,1668)"/>
<path d="M0 0 C0.66 1.65 1.32 3.3 2 5 C-6.415 5.495 -6.415 5.495 -15 6 C-15 9.96 -15 13.92 -15 18 C-16.98 18 -18.96 18 -21 18 C-21 14.04 -21 10.08 -21 6 C-21.99 6.495 -21.99 6.495 -23 7 C-25.37402501 7.07116382 -27.75000677 7.08409085 -30.125 7.0625 C-31.40632812 7.05347656 -32.68765625 7.04445313 -34.0078125 7.03515625 C-35.48894531 7.01775391 -35.48894531 7.01775391 -37 7 C-37.33 5.02 -37.66 3.04 -38 1 C-33.87408284 0.85582297 -29.74810667 0.71347951 -25.62207031 0.57275391 C-24.22166279 0.52474178 -22.82127163 0.47624929 -21.42089844 0.42724609 C-7.101645 -0.07321284 -7.101645 -0.07321284 0 0 Z " fill="#3A3A3A" transform="translate(610,1655)"/>
<path d="M0 0 C1.98 0 3.96 0 6 0 C6 11.88 6 23.76 6 36 C4.02 36 2.04 36 0 36 C0 24.12 0 12.24 0 0 Z " fill="#202020" transform="translate(556,1630)"/>
<path d="M0 0 C0 3 0 3 -1.3203125 4.6484375 C-1.91585938 5.21820312 -2.51140625 5.78796875 -3.125 6.375 C-3.75792969 6.98214844 -4.39085937 7.58929687 -5.04296875 8.21484375 C-7.62690569 10.5718481 -10.27546652 12.8070828 -13 15 C-13.66 14.67 -14.32 14.34 -15 14 C-13.44073252 12.41348318 -11.87743482 10.83092685 -10.3125 9.25 C-9.44238281 8.36828125 -8.57226562 7.4865625 -7.67578125 6.578125 C-5.21997532 4.21194702 -2.69858952 2.08107444 0 0 Z " fill="#FBEEF0" transform="translate(319,648)"/>
<path d="M0 0 C0.33 0 0.66 0 1 0 C1.25028811 1.58013217 1.47440946 3.16442306 1.6875 4.75 C1.87892578 6.07257813 1.87892578 6.07257813 2.07421875 7.421875 C2 10 2 10 -1 14 C-0.67 9.38 -0.34 4.76 0 0 Z " fill="#FBF0F1" transform="translate(380,304)"/>
<path d="M0 0 C-3.20336822 2.83374881 -5.78087253 3.5205537 -10 4 C-6.87839899 0.56623888 -4.64008112 -1.54669371 0 0 Z " fill="#FBF0F2" transform="translate(395,600)"/>
<path d="M0 0 C4.81449408 0.48144941 7.60171741 0.8008587 12 3 C8.7 3 5.4 3 2 3 C2 2.34 2 1.68 2 1 C1.34 0.67 0.68 0.34 0 0 Z " fill="#FCF1F2" transform="translate(566,179)"/>
<path d="" fill="#FFFFFF" transform="translate(0,0)"/>
<path d="" fill="#FFFFFF" transform="translate(0,0)"/>
</svg>
