<svg width="1040" height="1701" viewBox="0 0 1040 1701" fill="none" xmlns="http://www.w3.org/2000/svg">
<rect width="1040" height="1701" fill="white"/>
<circle cx="533.5" cy="330.5" r="154.5" fill="#FADEE1"/>
<ellipse cx="533.5" cy="901.5" rx="327.5" ry="333.5" fill="#FADEE1"/>
<rect x="206" y="901" width="655" height="643" fill="#FADEE1"/>
<path d="M461.856 1633.53H498.784V1637.88H461.856V1633.53ZM455.2 1656.7H507.616V1661.11H455.2V1656.7ZM495.648 1633.53H500.832V1638.07C500.832 1643.38 500.832 1649.72 498.976 1658.55L493.792 1657.98C495.648 1649.4 495.648 1643.26 495.648 1638.07V1633.53ZM462.048 1682.3H502.56V1686.71H462.048V1682.3ZM462.048 1667.51H467.36V1682.94H462.048V1667.51ZM514.011 1663.74H566.491V1668.09H514.011V1663.74ZM537.435 1666.36H542.683V1687.99H537.435V1666.36ZM520.667 1633.34H559.707V1655.93H520.667V1633.34ZM554.523 1637.62H525.915V1651.64H554.523V1637.62ZM587.222 1638.39H591.446V1647.8C591.446 1659.83 584.086 1672.25 575.062 1676.86L571.99 1672.63C580.246 1668.6 587.222 1657.59 587.222 1647.8V1638.39ZM588.182 1638.39H592.406V1647.8C592.406 1656.95 598.934 1667.26 607.318 1671.22L604.31 1675.45C595.158 1670.9 588.182 1659.26 588.182 1647.8V1638.39ZM574.038 1636.02H605.206V1640.5H574.038V1636.02ZM612.054 1630.14H617.43V1687.99H612.054V1630.14ZM616.15 1653.5H626.902V1657.98H616.15V1653.5Z" fill="black"/>
</svg>
