<svg width="1040" height="1701" viewBox="0 0 1040 1701" fill="none" xmlns="http://www.w3.org/2000/svg">
<rect width="1040" height="1701" fill="white"/>
<circle cx="533.5" cy="330.5" r="154.5" fill="#FADEE1"/>
<ellipse cx="533.5" cy="901.5" rx="327.5" ry="333.5" fill="#FADEE1"/>
<rect x="206" y="901" width="655" height="643" fill="#FADEE1"/>
<path d="M455.2 1676.15H507.616V1680.57H455.2V1676.15ZM478.752 1662.14H484V1677.62H478.752V1662.14ZM478.624 1637.43H483.104V1641.02C483.104 1652.86 471.264 1661.82 459.872 1664.18L457.696 1659.96C467.68 1658.3 478.624 1650.17 478.624 1641.02V1637.43ZM479.584 1637.43H484.064V1641.02C484.064 1650.17 495.072 1658.1 505.184 1659.77L503.072 1663.99C491.488 1661.69 479.584 1652.86 479.584 1641.02V1637.43ZM459.488 1635.38H503.2V1639.74H459.488V1635.38ZM529.435 1636.09H533.851V1640.7C533.851 1651.32 527.323 1660.22 517.595 1663.67L514.843 1659.51C523.547 1656.44 529.435 1648.89 529.435 1640.7V1636.09ZM530.459 1636.09H534.875V1640.7C534.875 1648.5 540.891 1655.54 549.467 1658.42L546.715 1662.58C537.115 1659.32 530.459 1650.81 530.459 1640.7V1636.09ZM556.123 1630.14H561.499V1665.14H556.123V1630.14ZM522.843 1668.22H561.499V1687.99H556.123V1672.57H522.843V1668.22ZM516.251 1634.17H547.931V1638.46H516.251V1634.17ZM589.334 1659.26H594.646V1672.12H589.334V1659.26ZM614.998 1630.14H620.31V1674.17H614.998V1630.14ZM580.822 1682.36H621.718V1686.71H580.822V1682.36ZM580.822 1669.88H586.134V1683.58H580.822V1669.88ZM573.334 1661.24L572.63 1656.89C583.318 1656.89 597.654 1656.76 609.942 1655.16L610.326 1659.06C597.846 1661.05 583.83 1661.24 573.334 1661.24ZM603.222 1664.31H616.342V1668.22H603.222V1664.31ZM591.446 1632.5C599.894 1632.5 605.654 1636.47 605.654 1642.55C605.654 1648.7 599.894 1652.66 591.446 1652.66C582.934 1652.66 577.174 1648.7 577.174 1642.55C577.174 1636.47 582.934 1632.5 591.446 1632.5ZM591.446 1636.47C586.006 1636.47 582.23 1638.84 582.23 1642.55C582.23 1646.26 586.006 1648.63 591.446 1648.63C596.822 1648.63 600.598 1646.26 600.598 1642.55C600.598 1638.84 596.822 1636.47 591.446 1636.47Z" fill="black"/>
</svg>
